<svg xmlns="http://www.w3.org/2000/svg" width="250" height="100"><path d="M101.82 82.27l-3.266-2.916-.315-18.22c-.184-10.627.08-18.615.635-19.17 1.42-1.42 6.58 1.612 7.985 4.693.785 1.722 1.195 8.786 1.195 20.575 0 20.027-.174 20.448-6.234 15.037zm35.392-40.905c-5.375.003-10.632 2.27-15.25 6.75-5.943 5.766-6.9 9.178-6.906 24.812v12.25h13.313c12.55 0 13.64-.16 18.75-2.75 7.787-3.95 11.253-9.288 11.72-18.03.46-8.6-2.264-14.266-9.125-18.906-4.08-2.76-8.32-4.128-12.5-4.125zm.344 9c1.827-.02 3.667.367 5.375 1.25 8.945 4.626 9.4 17.4.813 22.625-2.5 1.52-5.02 1.935-11.437 1.938h-8.25v-6.25c.003-3.437.457-7.856 1-9.812 1.628-5.86 7.02-9.686 12.5-9.75z" fill="#b5b5c1"/><path d="M166.054 73.63c0-14.18 1.166-19.108 5.798-24.52 5.26-6.146 9.843-7.874 20.952-7.9 10.524-.025 11.486.896 6.327 6.055-2.385 2.385-3.77 2.923-7.532 2.923-6.256 0-11.097 2.216-13.52 6.2-1.662 2.726-2.02 5.045-2.022 13.137-.004 9.526-.093 9.917-2.927 12.75-1.608 1.608-3.858 2.923-5 2.923-1.983 0-2.077-.524-2.077-11.557zm37.338 9.994c-.33-.86-.387-5.97-.128-11.356.554-11.5 2.86-17.373 8.53-21.698 4.112-3.136 11.62-5.385 17.978-5.385 3.574 0 4.282.32 4.282 1.944 0 3.465-4.14 7.004-9.286 7.94-8.377 1.524-11.714 6.554-11.714 17.66 0 5.97-.282 6.9-2.923 9.532-3.23 3.23-5.82 3.753-6.74 1.36zM182.7 66.357c-1.977-2.185-2.128-4.534-.384-5.98 1.283-1.065 18.336-1.916 19.3-.962 1.075 1.075-2.068 5.984-4.706 7.347-4.044 2.1-12.15 1.86-14.2-.404zM49.915 20.442c-18.76 0-33.97 15.155-33.97 33.844s15.2 33.844 33.97 33.844 33.97-15.155 33.97-33.844-15.2-33.844-33.97-33.844zM48.3 35.13c.344-.017.683 0 1.03 0 11.158 0 20.188 8.85 20.188 19.78s-9.03 19.8-20.188 19.8S29.1 65.84 29.1 54.9c0-10.6 8.513-19.25 19.188-19.78zm1.125 21.72c-4.36 0-7.906 3.546-7.906 7.906s3.546 7.906 7.906 7.906 7.906-3.546 7.906-7.906-3.546-7.906-7.906-7.906z" fill="#0083d7"/></svg>